<svg xmlns="http://www.w3.org/2000/svg" viewBox="0 0 1200 440" role="img">
<defs>
  <pattern id="hatch" width="8" height="8" patternUnits="userSpaceOnUse" patternTransform="rotate(45)">
    <line x1="0" y1="0" x2="0" y2="8" stroke="#111827" stroke-width="2"/>
  </pattern>
</defs>
<rect width="1200" height="440" fill="white"/>
<text x="35" y="35" text-anchor="start" font-family="Arial, Helvetica, sans-serif" font-size="24" font-weight="800" fill="#1A237E">Q4 — Apply the same transformation.</text><rect x="90" y="72" width="125" height="125" rx="0" fill="white" stroke="#374151" stroke-width="2"/><line x1="110" y1="92" x2="195" y2="177" stroke="#111827" stroke-width="3" stroke-linecap="round"/><rect x="104" y="86" width="18" height="18" rx="0" fill="#111827" stroke="#111827" stroke-width="2"/><rect x="183" y="165" width="18" height="18" rx="0" fill="white" stroke="#111827" stroke-width="2"/><line x1="152" y1="115" x2="152" y2="154" stroke="#111827" stroke-width="4" stroke-linecap="round"/><text x="250" y="140" text-anchor="middle" font-family="Arial, Helvetica, sans-serif" font-size="34" font-weight="800" fill="#111827">→</text><rect x="300" y="72" width="125" height="125" rx="0" fill="white" stroke="#374151" stroke-width="2"/><line x1="320" y1="177" x2="405" y2="92" stroke="#111827" stroke-width="3" stroke-linecap="round"/><rect x="393" y="165" width="18" height="18" rx="0" fill="#111827" stroke="#111827" stroke-width="2"/><rect x="314" y="86" width="18" height="18" rx="0" fill="white" stroke="#111827" stroke-width="2"/><line x1="343" y1="134" x2="382" y2="134" stroke="#111827" stroke-width="4" stroke-linecap="round"/><text x="470" y="140" text-anchor="middle" font-family="Arial, Helvetica, sans-serif" font-size="22" font-weight="700" fill="#111827">as</text><rect x="520" y="72" width="125" height="125" rx="0" fill="white" stroke="#374151" stroke-width="2"/><line x1="540" y1="177" x2="625" y2="92" stroke="#111827" stroke-width="3" stroke-linecap="round"/><rect x="613" y="86" width="18" height="18" rx="0" fill="#111827" stroke="#111827" stroke-width="2"/><rect x="534" y="165" width="18" height="18" rx="0" fill="white" stroke="#111827" stroke-width="2"/><line x1="582" y1="115" x2="582" y2="154" stroke="#111827" stroke-width="4" stroke-linecap="round"/><text x="690" y="140" text-anchor="middle" font-family="Arial, Helvetica, sans-serif" font-size="34" font-weight="800" fill="#111827">→ ?</text><line x1="35" y1="265" x2="1165" y2="265" stroke="#CBD5E1" stroke-width="2" stroke-linecap="round"/><rect x="90" y="285" width="125" height="125" rx="0" fill="white" stroke="#374151" stroke-width="2"/><line x1="110" y1="305" x2="195" y2="390" stroke="#111827" stroke-width="3" stroke-linecap="round"/><rect x="183" y="299" width="18" height="18" rx="0" fill="#111827" stroke="#111827" stroke-width="2"/><rect x="104" y="378" width="18" height="18" rx="0" fill="white" stroke="#111827" stroke-width="2"/><line x1="133" y1="347" x2="172" y2="347" stroke="#111827" stroke-width="4" stroke-linecap="round"/><text x="152.5" y="430" text-anchor="middle" font-family="Arial, Helvetica, sans-serif" font-size="20" font-weight="800" fill="#111827">A</text><rect x="360" y="285" width="125" height="125" rx="0" fill="white" stroke="#374151" stroke-width="2"/><line x1="380" y1="305" x2="465" y2="390" stroke="#111827" stroke-width="3" stroke-linecap="round"/><rect x="374" y="378" width="18" height="18" rx="0" fill="#111827" stroke="#111827" stroke-width="2"/><rect x="453" y="299" width="18" height="18" rx="0" fill="white" stroke="#111827" stroke-width="2"/><line x1="403" y1="347" x2="442" y2="347" stroke="#111827" stroke-width="4" stroke-linecap="round"/><text x="422.5" y="430" text-anchor="middle" font-family="Arial, Helvetica, sans-serif" font-size="20" font-weight="800" fill="#111827">B</text><rect x="630" y="285" width="125" height="125" rx="0" fill="white" stroke="#374151" stroke-width="2"/><line x1="650" y1="390" x2="735" y2="305" stroke="#111827" stroke-width="3" stroke-linecap="round"/><rect x="723" y="299" width="18" height="18" rx="0" fill="#111827" stroke="#111827" stroke-width="2"/><rect x="644" y="378" width="18" height="18" rx="0" fill="white" stroke="#111827" stroke-width="2"/><line x1="673" y1="347" x2="712" y2="347" stroke="#111827" stroke-width="4" stroke-linecap="round"/><text x="692.5" y="430" text-anchor="middle" font-family="Arial, Helvetica, sans-serif" font-size="20" font-weight="800" fill="#111827">C</text><rect x="900" y="285" width="125" height="125" rx="0" fill="white" stroke="#374151" stroke-width="2"/><line x1="920" y1="305" x2="1005" y2="390" stroke="#111827" stroke-width="3" stroke-linecap="round"/><rect x="993" y="299" width="18" height="18" rx="0" fill="#111827" stroke="#111827" stroke-width="2"/><rect x="914" y="378" width="18" height="18" rx="0" fill="white" stroke="#111827" stroke-width="2"/><line x1="962" y1="328" x2="962" y2="367" stroke="#111827" stroke-width="4" stroke-linecap="round"/><text x="962.5" y="430" text-anchor="middle" font-family="Arial, Helvetica, sans-serif" font-size="20" font-weight="800" fill="#111827">D</text>
</svg>