<svg xmlns="http://www.w3.org/2000/svg" viewBox="0 0 1200 380" role="img">
<defs>
  <pattern id="hatch" width="8" height="8" patternUnits="userSpaceOnUse" patternTransform="rotate(45)">
    <line x1="0" y1="0" x2="0" y2="8" stroke="#111827" stroke-width="2"/>
  </pattern>
</defs>
<rect width="1200" height="380" fill="white"/>
<text x="35" y="35" text-anchor="start" font-family="Arial, Helvetica, sans-serif" font-size="24" font-weight="800" fill="#1A237E">Q7 — Which figure is the odd one out?</text><rect x="70" y="120" width="120" height="120" rx="0" fill="white" stroke="#374151" stroke-width="2"/><polygon points="152.62741699796953,202.62741699796953 107.37258300203048,202.62741699796953 107.37258300203047,157.37258300203047 152.6274169979695,157.37258300203047" fill="white" stroke="#111827" stroke-width="3" stroke-linejoin="round"/><circle cx="130" cy="142" r="7" fill="#111827" stroke="#111827" stroke-width="1"/><circle cx="168" cy="180" r="7" fill="white" stroke="#111827" stroke-width="2"/><line x1="130" y1="180" x2="130" y2="142" stroke="#111827" stroke-width="3" stroke-linecap="round"/><text x="130" y="270" text-anchor="middle" font-family="Arial, Helvetica, sans-serif" font-size="20" font-weight="800" fill="#111827">A</text><rect x="285" y="120" width="120" height="120" rx="0" fill="white" stroke="#374151" stroke-width="2"/><polygon points="367.62741699796953,202.62741699796953 322.37258300203047,202.62741699796953 322.37258300203047,157.37258300203047 367.62741699796953,157.37258300203047" fill="white" stroke="#111827" stroke-width="3" stroke-linejoin="round"/><circle cx="383" cy="180" r="7" fill="#111827" stroke="#111827" stroke-width="1"/><circle cx="345" cy="218" r="7" fill="white" stroke="#111827" stroke-width="2"/><line x1="345" y1="180" x2="383" y2="180" stroke="#111827" stroke-width="3" stroke-linecap="round"/><text x="345" y="270" text-anchor="middle" font-family="Arial, Helvetica, sans-serif" font-size="20" font-weight="800" fill="#111827">B</text><rect x="500" y="120" width="120" height="120" rx="0" fill="white" stroke="#374151" stroke-width="2"/><polygon points="582.6274169979695,202.62741699796953 537.3725830020305,202.62741699796953 537.3725830020305,157.37258300203047 582.6274169979695,157.37258300203047" fill="white" stroke="#111827" stroke-width="3" stroke-linejoin="round"/><circle cx="560" cy="218" r="7" fill="#111827" stroke="#111827" stroke-width="1"/><circle cx="522" cy="180" r="7" fill="white" stroke="#111827" stroke-width="2"/><line x1="560" y1="180" x2="560" y2="218" stroke="#111827" stroke-width="3" stroke-linecap="round"/><text x="560" y="270" text-anchor="middle" font-family="Arial, Helvetica, sans-serif" font-size="20" font-weight="800" fill="#111827">C</text><rect x="715" y="120" width="120" height="120" rx="0" fill="white" stroke="#374151" stroke-width="2"/><polygon points="797.6274169979695,202.62741699796953 752.3725830020305,202.62741699796953 752.3725830020305,157.37258300203047 797.6274169979695,157.37258300203047" fill="white" stroke="#111827" stroke-width="3" stroke-linejoin="round"/><circle cx="737" cy="180" r="7" fill="#111827" stroke="#111827" stroke-width="1"/><circle cx="775" cy="142" r="7" fill="white" stroke="#111827" stroke-width="2"/><line x1="775" y1="180" x2="737" y2="180" stroke="#111827" stroke-width="3" stroke-linecap="round"/><text x="775" y="270" text-anchor="middle" font-family="Arial, Helvetica, sans-serif" font-size="20" font-weight="800" fill="#111827">D</text><rect x="930" y="120" width="120" height="120" rx="0" fill="white" stroke="#374151" stroke-width="2"/><polygon points="1012.6274169979695,202.62741699796953 967.3725830020305,202.62741699796953 967.3725830020305,157.37258300203047 1012.6274169979695,157.37258300203047" fill="white" stroke="#111827" stroke-width="3" stroke-linejoin="round"/><circle cx="990" cy="142" r="7" fill="#111827" stroke="#111827" stroke-width="1"/><circle cx="990" cy="218" r="7" fill="white" stroke="#111827" stroke-width="2"/><line x1="990" y1="180" x2="990" y2="142" stroke="#111827" stroke-width="3" stroke-linecap="round"/><text x="990" y="270" text-anchor="middle" font-family="Arial, Helvetica, sans-serif" font-size="20" font-weight="800" fill="#111827">E</text><text x="70" y="335" text-anchor="start" font-family="Arial, Helvetica, sans-serif" font-size="19" font-weight="600" fill="#6B7280">In four figures, the open marker is one position clockwise from the filled marker.</text>
</svg>