<svg xmlns="http://www.w3.org/2000/svg" viewBox="0 0 1200 445" role="img">
<defs>
  <pattern id="hatch" width="8" height="8" patternUnits="userSpaceOnUse" patternTransform="rotate(45)">
    <line x1="0" y1="0" x2="0" y2="8" stroke="#111827" stroke-width="2" />
  </pattern>
</defs>
<rect width="1200" height="445" fill="white" />
<text x="35" y="35" text-anchor="start" font-family="Arial, Helvetica, sans-serif" font-size="24" font-weight="800" fill="#1A237E">Q10 — Which figure comes next?</text><rect x="45" y="70" width="120" height="120" rx="0" fill="white" stroke="#374151" stroke-width="2" /><polygon points="69.0,83.0 78.52627944162883,99.5 59.47372055837117,99.5" fill="#111827" stroke="#111827" stroke-width="1" stroke-linejoin="round" /><polygon points="148.07106781186548,173.07106781186548 133.92893218813452,173.07106781186548 133.92893218813452,158.92893218813452 148.07106781186548,158.92893218813452" fill="white" stroke="#111827" stroke-width="2" stroke-linejoin="round" /><line x1="83" y1="108" x2="127" y2="152" stroke="#111827" stroke-width="3" stroke-linecap="round" /><circle cx="105" cy="130" r="6" fill="white" stroke="#111827" stroke-width="2" /><rect x="200" y="70" width="120" height="120" rx="0" fill="white" stroke="#374151" stroke-width="2" /><polygon points="296.0,83.0 305.52627944162884,99.5 286.47372055837116,99.5" fill="#111827" stroke="#111827" stroke-width="1" stroke-linejoin="round" /><polygon points="231.07106781186548,173.07106781186548 216.92893218813452,173.07106781186548 216.92893218813452,158.92893218813452 231.07106781186548,158.92893218813452" fill="white" stroke="#111827" stroke-width="2" stroke-linejoin="round" /><line x1="238" y1="152" x2="282" y2="108" stroke="#111827" stroke-width="3" stroke-linecap="round" /><circle cx="260" cy="130" r="6" fill="#111827" stroke="#111827" stroke-width="2" /><rect x="355" y="70" width="120" height="120" rx="0" fill="white" stroke="#374151" stroke-width="2" /><polygon points="451.0,155.0 460.52627944162884,171.5 441.47372055837116,171.5" fill="#111827" stroke="#111827" stroke-width="1" stroke-linejoin="round" /><polygon points="386.0710678118655,101.07106781186548 371.9289321881345,101.07106781186548 371.9289321881345,86.92893218813452 386.0710678118655,86.92893218813452" fill="white" stroke="#111827" stroke-width="2" stroke-linejoin="round" /><line x1="393" y1="108" x2="437" y2="152" stroke="#111827" stroke-width="3" stroke-linecap="round" /><circle cx="415" cy="130" r="6" fill="white" stroke="#111827" stroke-width="2" /><rect x="510" y="70" width="120" height="120" rx="0" fill="white" stroke="#374151" stroke-width="2" /><polygon points="534.0,155.0 543.5262794416288,171.5 524.4737205583712,171.5" fill="#111827" stroke="#111827" stroke-width="1" stroke-linejoin="round" /><polygon points="613.0710678118655,101.07106781186548 598.9289321881346,101.07106781186548 598.9289321881345,86.92893218813452 613.0710678118654,86.92893218813452" fill="white" stroke="#111827" stroke-width="2" stroke-linejoin="round" /><line x1="548" y1="152" x2="592" y2="108" stroke="#111827" stroke-width="3" stroke-linecap="round" /><circle cx="570" cy="130" r="6" fill="#111827" stroke="#111827" stroke-width="2" /><text x="680" y="135" text-anchor="middle" font-family="Arial, Helvetica, sans-serif" font-size="52" font-weight="800" fill="#111827">?</text><line x1="35" y1="265" x2="1165" y2="265" stroke="#CBD5E1" stroke-width="2" stroke-linecap="round" /><rect x="105" y="290" width="120" height="120" rx="0" fill="white" stroke="#374151" stroke-width="2" /><polygon points="129.0,303.0 138.52627944162882,319.5 119.47372055837117,319.5" fill="#111827" stroke="#111827" stroke-width="1" stroke-linejoin="round" /><polygon points="208.07106781186548,393.0710678118655 193.92893218813452,393.0710678118655 193.92893218813452,378.9289321881345 208.07106781186548,378.9289321881345" fill="white" stroke="#111827" stroke-width="2" stroke-linejoin="round" /><line x1="143" y1="328" x2="187" y2="372" stroke="#111827" stroke-width="3" stroke-linecap="round" /><circle cx="165" cy="350" r="6" fill="white" stroke="#111827" stroke-width="2" /><text x="165" y="432" text-anchor="middle" font-family="Arial, Helvetica, sans-serif" font-size="20" font-weight="800" fill="#111827">B</text><rect x="370" y="290" width="120" height="120" rx="0" fill="white" stroke="#374151" stroke-width="2" /><polygon points="466.0,303.0 475.52627944162884,319.5 456.47372055837116,319.5" fill="#111827" stroke="#111827" stroke-width="1" stroke-linejoin="round" /><polygon points="473.0710678118655,393.0710678118655 458.9289321881345,393.0710678118655 458.9289321881345,378.9289321881345 473.0710678118655,378.9289321881345" fill="white" stroke="#111827" stroke-width="2" stroke-linejoin="round" /><line x1="408" y1="328" x2="452" y2="372" stroke="#111827" stroke-width="3" stroke-linecap="round" /><circle cx="430" cy="350" r="6" fill="white" stroke="#111827" stroke-width="2" /><text x="430" y="432" text-anchor="middle" font-family="Arial, Helvetica, sans-serif" font-size="20" font-weight="800" fill="#111827">A</text><rect x="635" y="290" width="120" height="120" rx="0" fill="white" stroke="#374151" stroke-width="2" /><polygon points="659.0,303.0 668.5262794416288,319.5 649.4737205583712,319.5" fill="#111827" stroke="#111827" stroke-width="1" stroke-linejoin="round" /><polygon points="666.0710678118655,393.0710678118655 651.9289321881346,393.0710678118655 651.9289321881345,378.9289321881345 666.0710678118654,378.9289321881345" fill="white" stroke="#111827" stroke-width="2" stroke-linejoin="round" /><line x1="673" y1="372" x2="717" y2="328" stroke="#111827" stroke-width="3" stroke-linecap="round" /><circle cx="695" cy="350" r="6" fill="white" stroke="#111827" stroke-width="2" /><text x="695" y="432" text-anchor="middle" font-family="Arial, Helvetica, sans-serif" font-size="20" font-weight="800" fill="#111827">C</text><rect x="900" y="290" width="120" height="120" rx="0" fill="white" stroke="#374151" stroke-width="2" /><polygon points="924.0,303.0 933.5262794416288,319.5 914.4737205583712,319.5" fill="#111827" stroke="#111827" stroke-width="1" stroke-linejoin="round" /><polygon points="1003.0710678118655,393.0710678118655 988.9289321881346,393.0710678118655 988.9289321881345,378.9289321881345 1003.0710678118654,378.9289321881345" fill="white" stroke="#111827" stroke-width="2" stroke-linejoin="round" /><line x1="938" y1="328" x2="982" y2="372" stroke="#111827" stroke-width="3" stroke-linecap="round" /><circle cx="960" cy="350" r="6" fill="#111827" stroke="#111827" stroke-width="2" /><text x="960" y="432" text-anchor="middle" font-family="Arial, Helvetica, sans-serif" font-size="20" font-weight="800" fill="#111827">D</text>
</svg>