<svg xmlns="http://www.w3.org/2000/svg" viewBox="0 0 1200 490">
<defs>
  <pattern id="hatch0" width="8" height="8" patternUnits="userSpaceOnUse">
    <line x1="0" y1="0" x2="8" y2="8" stroke="#111827" stroke-width="2"/>
  </pattern>
  <pattern id="hatch45" width="8" height="8" patternUnits="userSpaceOnUse" patternTransform="rotate(45)">
    <line x1="0" y1="0" x2="0" y2="8" stroke="#111827" stroke-width="2"/>
  </pattern>
  <pattern id="hatch90" width="8" height="8" patternUnits="userSpaceOnUse">
    <line x1="4" y1="0" x2="4" y2="8" stroke="#111827" stroke-width="2"/>
  </pattern>
</defs>
<rect width="1200" height="490" fill="white"/>
<text x="35" y="34" text-anchor="start" font-family="Arial,Helvetica,sans-serif" font-size="24" font-weight="850" fill="#1A237E">Q11 — Which option is identical to the target after a 180° rotation?</text><rect x="65" y="80" width="150" height="150" rx="0" fill="white" stroke="#374151" stroke-width="2"/><circle cx="124.0" cy="155.0" r="34" fill="white" stroke="#111827" stroke-width="3"/><polygon points="152.0,112.0 184.9,169.0 119.1,169.0" fill="white" stroke="#111827" stroke-width="3" stroke-linejoin="round"/><rect x="122.0" y="127.0" width="48" height="48" rx="0" fill="white" stroke="#111827" stroke-width="3"/><circle cx="168.0" cy="178.0" r="5" fill="#111827" stroke="#111827" stroke-width="1"/><text x="140" y="258" text-anchor="middle" font-family="Arial,Helvetica,sans-serif" font-size="18" font-weight="800" fill="#111827">Target</text><line x1="35" y1="285" x2="1165" y2="285" stroke="#CBD5E1" stroke-width="2" stroke-linecap="round"/><rect x="20" y="310" width="140" height="140" rx="0" fill="white" stroke="#374151" stroke-width="2"/><rect x="72.0" y="352.0" width="48" height="48" rx="0" fill="white" stroke="#111827" stroke-width="3"/><circle cx="74.0" cy="380.0" r="34" fill="white" stroke="#111827" stroke-width="3"/><polygon points="102.0,337.0 134.9,394.0 69.1,394.0" fill="white" stroke="#111827" stroke-width="3" stroke-linejoin="round"/><circle cx="116.0" cy="356.0" r="5" fill="#111827" stroke="#111827" stroke-width="1"/><text x="90" y="475" text-anchor="middle" font-family="Arial,Helvetica,sans-serif" font-size="20" font-weight="850" fill="#111827">A</text><rect x="250" y="310" width="140" height="140" rx="0" fill="white" stroke="#374151" stroke-width="2"/><circle cx="304.0" cy="380.0" r="34" fill="white" stroke="#111827" stroke-width="3"/><polygon points="332.0,337.0 364.9,394.0 299.1,394.0" fill="white" stroke="#111827" stroke-width="3" stroke-linejoin="round"/><rect x="302.0" y="352.0" width="48" height="48" rx="0" fill="white" stroke="#111827" stroke-width="3"/><circle cx="288.0" cy="400.0" r="5" fill="#111827" stroke="#111827" stroke-width="1"/><text x="320" y="475" text-anchor="middle" font-family="Arial,Helvetica,sans-serif" font-size="20" font-weight="850" fill="#111827">B</text><rect x="480" y="310" width="140" height="140" rx="0" fill="white" stroke="#374151" stroke-width="2"/><circle cx="534.0" cy="380.0" r="34" fill="white" stroke="#111827" stroke-width="3"/><polygon points="562.0,337.0 594.9,394.0 529.1,394.0" fill="white" stroke="#111827" stroke-width="3" stroke-linejoin="round"/><rect x="532.0" y="352.0" width="48" height="48" rx="0" fill="white" stroke="#111827" stroke-width="3"/><circle cx="578.0" cy="403.0" r="5" fill="#111827" stroke="#111827" stroke-width="1"/><text x="550" y="475" text-anchor="middle" font-family="Arial,Helvetica,sans-serif" font-size="20" font-weight="850" fill="#111827">C</text><rect x="710" y="310" width="140" height="140" rx="0" fill="white" stroke="#374151" stroke-width="2"/><rect x="762.0" y="352.0" width="48" height="48" rx="0" fill="white" stroke="#111827" stroke-width="3"/><circle cx="764.0" cy="380.0" r="34" fill="white" stroke="#111827" stroke-width="3"/><polygon points="792.0,337.0 824.9,394.0 759.1,394.0" fill="white" stroke="#111827" stroke-width="3" stroke-linejoin="round"/><circle cx="752.0" cy="360.0" r="5" fill="#111827" stroke="#111827" stroke-width="1"/><text x="780" y="475" text-anchor="middle" font-family="Arial,Helvetica,sans-serif" font-size="20" font-weight="850" fill="#111827">D</text><rect x="940" y="310" width="140" height="140" rx="0" fill="white" stroke="#374151" stroke-width="2"/><circle cx="994.0" cy="380.0" r="34" fill="white" stroke="#111827" stroke-width="3"/><polygon points="1022.0,337.0 1054.9,394.0 989.1,394.0" fill="white" stroke="#111827" stroke-width="3" stroke-linejoin="round"/><rect x="992.0" y="352.0" width="48" height="48" rx="0" fill="white" stroke="#111827" stroke-width="3"/><circle cx="1012.0" cy="414.0" r="5" fill="#111827" stroke="#111827" stroke-width="1"/><text x="1010" y="475" text-anchor="middle" font-family="Arial,Helvetica,sans-serif" font-size="20" font-weight="850" fill="#111827">E</text>
</svg>