<svg xmlns="http://www.w3.org/2000/svg" viewBox="0 0 1200 450">
<defs>
  <pattern id="hatch0" width="8" height="8" patternUnits="userSpaceOnUse">
    <line x1="0" y1="0" x2="8" y2="8" stroke="#111827" stroke-width="2" />
  </pattern>
  <pattern id="hatch45" width="8" height="8" patternUnits="userSpaceOnUse" patternTransform="rotate(45)">
    <line x1="0" y1="0" x2="0" y2="8" stroke="#111827" stroke-width="2" />
  </pattern>
  <pattern id="hatch90" width="8" height="8" patternUnits="userSpaceOnUse">
    <line x1="4" y1="0" x2="4" y2="8" stroke="#111827" stroke-width="2" />
  </pattern>
</defs>
<rect width="1200" height="450" fill="white" />
<text x="35" y="34" text-anchor="start" font-family="Arial,Helvetica,sans-serif" font-size="24" font-weight="850" fill="#1A237E">Q12 — Which option belongs in neither group?</text><text x="145" y="70" text-anchor="middle" font-family="Arial,Helvetica,sans-serif" font-size="19" font-weight="850" fill="#111827">Group 1</text><text x="500" y="70" text-anchor="middle" font-family="Arial,Helvetica,sans-serif" font-size="19" font-weight="850" fill="#111827">Group 2</text><rect x="70" y="90" width="120" height="120" rx="0" fill="white" stroke="#374151" stroke-width="2" /><circle cx="98" cy="118" r="11" fill="#111827" stroke="#111827" stroke-width="2" /><rect x="152" y="108" width="20" height="20" rx="0" fill="white" stroke="#111827" stroke-width="2" /><polygon points="98.0,169.0 109.3,188.5 86.7,188.5" fill="white" stroke="#111827" stroke-width="2" stroke-linejoin="round" /><polygon points="170.5,190.5 153.5,190.5 153.5,173.5 170.5,173.5" fill="#111827" stroke="#111827" stroke-width="2" stroke-linejoin="round" /><rect x="210" y="90" width="120" height="120" rx="0" fill="white" stroke="#374151" stroke-width="2" /><circle cx="238" cy="118" r="11" fill="white" stroke="#111827" stroke-width="2" /><rect x="292" y="108" width="20" height="20" rx="0" fill="#111827" stroke="#111827" stroke-width="2" /><polygon points="238.0,169.0 249.3,188.5 226.7,188.5" fill="#111827" stroke="#111827" stroke-width="2" stroke-linejoin="round" /><polygon points="310.5,190.5 293.5,190.5 293.5,173.5 310.5,173.5" fill="white" stroke="#111827" stroke-width="2" stroke-linejoin="round" /><rect x="425" y="90" width="120" height="120" rx="0" fill="white" stroke="#374151" stroke-width="2" /><circle cx="453" cy="118" r="11" fill="#111827" stroke="#111827" stroke-width="2" /><rect x="507" y="108" width="20" height="20" rx="0" fill="white" stroke="#111827" stroke-width="2" /><polygon points="453.0,169.0 464.3,188.5 441.7,188.5" fill="#111827" stroke="#111827" stroke-width="2" stroke-linejoin="round" /><polygon points="525.5,190.5 508.5,190.5 508.5,173.5 525.5,173.5" fill="white" stroke="#111827" stroke-width="2" stroke-linejoin="round" /><rect x="565" y="90" width="120" height="120" rx="0" fill="white" stroke="#374151" stroke-width="2" /><circle cx="593" cy="118" r="11" fill="white" stroke="#111827" stroke-width="2" /><rect x="647" y="108" width="20" height="20" rx="0" fill="#111827" stroke="#111827" stroke-width="2" /><polygon points="593.0,169.0 604.3,188.5 581.7,188.5" fill="white" stroke="#111827" stroke-width="2" stroke-linejoin="round" /><polygon points="665.5,190.5 648.5,190.5 648.5,173.5 665.5,173.5" fill="#111827" stroke="#111827" stroke-width="2" stroke-linejoin="round" /><line x1="35" y1="245" x2="1165" y2="245" stroke="#CBD5E1" stroke-width="2" stroke-linecap="round" /><rect x="20" y="280" width="130" height="130" rx="0" fill="white" stroke="#374151" stroke-width="2" /><circle cx="48" cy="308" r="11" fill="#111827" stroke="#111827" stroke-width="2" /><rect x="102" y="298" width="20" height="20" rx="0" fill="white" stroke="#111827" stroke-width="2" /><polygon points="48.0,359.0 59.3,378.5 36.7,378.5" fill="white" stroke="#111827" stroke-width="2" stroke-linejoin="round" /><polygon points="120.5,380.5 103.5,380.5 103.5,363.5 120.5,363.5" fill="#111827" stroke="#111827" stroke-width="2" stroke-linejoin="round" /><text x="85" y="435" text-anchor="middle" font-family="Arial,Helvetica,sans-serif" font-size="20" font-weight="850" fill="#111827">A</text><rect x="250" y="280" width="130" height="130" rx="0" fill="white" stroke="#374151" stroke-width="2" /><circle cx="278" cy="308" r="11" fill="white" stroke="#111827" stroke-width="2" /><rect x="332" y="298" width="20" height="20" rx="0" fill="#111827" stroke="#111827" stroke-width="2" /><polygon points="278.0,359.0 289.3,378.5 266.7,378.5" fill="white" stroke="#111827" stroke-width="2" stroke-linejoin="round" /><polygon points="350.5,380.5 333.5,380.5 333.5,363.5 350.5,363.5" fill="#111827" stroke="#111827" stroke-width="2" stroke-linejoin="round" /><text x="315" y="435" text-anchor="middle" font-family="Arial,Helvetica,sans-serif" font-size="20" font-weight="850" fill="#111827">B</text><rect x="480" y="280" width="130" height="130" rx="0" fill="white" stroke="#374151" stroke-width="2" /><circle cx="508" cy="308" r="11" fill="#111827" stroke="#111827" stroke-width="2" /><rect x="562" y="298" width="20" height="20" rx="0" fill="#111827" stroke="#111827" stroke-width="2" /><polygon points="508.0,359.0 519.3,378.5 496.7,378.5" fill="white" stroke="#111827" stroke-width="2" stroke-linejoin="round" /><polygon points="580.5,380.5 563.5,380.5 563.5,363.5 580.5,363.5" fill="white" stroke="#111827" stroke-width="2" stroke-linejoin="round" /><text x="545" y="435" text-anchor="middle" font-family="Arial,Helvetica,sans-serif" font-size="20" font-weight="850" fill="#111827">D</text><rect x="710" y="280" width="130" height="130" rx="0" fill="white" stroke="#374151" stroke-width="2" /><circle cx="738" cy="308" r="11" fill="white" stroke="#111827" stroke-width="2" /><rect x="792" y="298" width="20" height="20" rx="0" fill="#111827" stroke="#111827" stroke-width="2" /><polygon points="738.0,359.0 749.3,378.5 726.7,378.5" fill="#111827" stroke="#111827" stroke-width="2" stroke-linejoin="round" /><polygon points="810.5,380.5 793.5,380.5 793.5,363.5 810.5,363.5" fill="white" stroke="#111827" stroke-width="2" stroke-linejoin="round" /><text x="775" y="435" text-anchor="middle" font-family="Arial,Helvetica,sans-serif" font-size="20" font-weight="850" fill="#111827">C</text><rect x="940" y="280" width="130" height="130" rx="0" fill="white" stroke="#374151" stroke-width="2" /><circle cx="968" cy="308" r="11" fill="#111827" stroke="#111827" stroke-width="2" /><rect x="1022" y="298" width="20" height="20" rx="0" fill="white" stroke="#111827" stroke-width="2" /><polygon points="968.0,359.0 979.3,378.5 956.7,378.5" fill="#111827" stroke="#111827" stroke-width="2" stroke-linejoin="round" /><polygon points="1040.5,380.5 1023.5,380.5 1023.5,363.5 1040.5,363.5" fill="white" stroke="#111827" stroke-width="2" stroke-linejoin="round" /><text x="1005" y="435" text-anchor="middle" font-family="Arial,Helvetica,sans-serif" font-size="20" font-weight="850" fill="#111827">E</text>
</svg>