<svg xmlns="http://www.w3.org/2000/svg" viewBox="0 0 1200 448" role="img">
<defs>
  <pattern id="hatch" width="8" height="8" patternUnits="userSpaceOnUse" patternTransform="rotate(45)">
    <line x1="0" y1="0" x2="0" y2="8" stroke="#111827" stroke-width="2" />
  </pattern>
</defs>
<rect width="1200" height="448" fill="white" />
<text x="35" y="35" text-anchor="start" font-family="Arial, Helvetica, sans-serif" font-size="24" font-weight="800" fill="#1A237E">Q11 — Which figure comes next?</text><rect x="45" y="70" width="125" height="125" rx="0" fill="white" stroke="#374151" stroke-width="2" /><polygon points="81.0,103.0 88.79422863405995,116.5 73.20577136594005,116.5" fill="#111827" stroke="#111827" stroke-width="2" stroke-linejoin="round" /><polygon points="108.0,103.0 115.79422863405995,116.5 100.20577136594005,116.5" fill="white" stroke="#111827" stroke-width="2" stroke-linejoin="round" /><rect x="58" y="83" width="18" height="18" rx="0" fill="white" stroke="#111827" stroke-width="3" /><rect x="200" y="70" width="125" height="125" rx="0" fill="white" stroke="#374151" stroke-width="2" /><polygon points="236.0,103.0 245.0,112.0 236.0,121.0 227.0,112.0" fill="#111827" stroke="#111827" stroke-width="2" stroke-linejoin="round" /><polygon points="263.0,103.0 272.0,112.0 263.0,121.0 254.0,112.0" fill="#111827" stroke="#111827" stroke-width="2" stroke-linejoin="round" /><polygon points="290.0,103.0 299.0,112.0 290.0,121.0 281.0,112.0" fill="white" stroke="#111827" stroke-width="2" stroke-linejoin="round" /><rect x="294" y="83" width="18" height="18" rx="0" fill="white" stroke="#111827" stroke-width="3" /><rect x="355" y="70" width="125" height="125" rx="0" fill="white" stroke="#374151" stroke-width="2" /><polygon points="391.0,103.0 399.55950864665635,109.21884705062547 396.2900672706323,119.28115294937453 385.7099327293677,119.28115294937453 382.44049135334365,109.21884705062547" fill="#111827" stroke="#111827" stroke-width="2" stroke-linejoin="round" /><polygon points="418.0,103.0 426.55950864665635,109.21884705062547 423.2900672706323,119.28115294937453 412.7099327293677,119.28115294937453 409.44049135334365,109.21884705062547" fill="#111827" stroke="#111827" stroke-width="2" stroke-linejoin="round" /><polygon points="445.0,103.0 453.55950864665635,109.21884705062547 450.2900672706323,119.28115294937453 439.7099327293677,119.28115294937453 436.44049135334365,109.21884705062547" fill="white" stroke="#111827" stroke-width="2" stroke-linejoin="round" /><polygon points="404.0,137.0 412.55950864665635,143.21884705062547 409.2900672706323,153.28115294937453 398.7099327293677,153.28115294937453 395.44049135334365,143.21884705062547" fill="white" stroke="#111827" stroke-width="2" stroke-linejoin="round" /><rect x="449" y="164" width="18" height="18" rx="0" fill="white" stroke="#111827" stroke-width="3" /><rect x="510" y="70" width="125" height="125" rx="0" fill="white" stroke="#374151" stroke-width="2" /><polygon points="546.0,103.0 553.7942286340599,107.5 553.7942286340599,116.5 546.0,121.0 538.2057713659401,116.5 538.2057713659401,107.5" fill="#111827" stroke="#111827" stroke-width="2" stroke-linejoin="round" /><polygon points="573.0,103.0 580.7942286340599,107.5 580.7942286340599,116.5 573.0,121.0 565.2057713659401,116.5 565.2057713659401,107.5" fill="#111827" stroke="#111827" stroke-width="2" stroke-linejoin="round" /><polygon points="600.0,103.0 607.7942286340599,107.5 607.7942286340599,116.5 600.0,121.0 592.2057713659401,116.5 592.2057713659401,107.5" fill="#111827" stroke="#111827" stroke-width="2" stroke-linejoin="round" /><polygon points="559.0,137.0 566.7942286340599,141.5 566.7942286340599,150.5 559.0,155.0 551.2057713659401,150.5 551.2057713659401,141.5" fill="white" stroke="#111827" stroke-width="2" stroke-linejoin="round" /><polygon points="587.0,137.0 594.7942286340599,141.5 594.7942286340599,150.5 587.0,155.0 579.2057713659401,150.5 579.2057713659401,141.5" fill="white" stroke="#111827" stroke-width="2" stroke-linejoin="round" /><rect x="523" y="164" width="18" height="18" rx="0" fill="white" stroke="#111827" stroke-width="3" /><text x="680" y="135" text-anchor="middle" font-family="Arial, Helvetica, sans-serif" font-size="52" font-weight="800" fill="#111827">?</text><line x1="35" y1="265" x2="1165" y2="265" stroke="#CBD5E1" stroke-width="2" stroke-linecap="round" /><rect x="100" y="290" width="125" height="125" rx="0" fill="white" stroke="#374151" stroke-width="2" /><polygon points="136.0,323.0 143.03648334221228,326.3885917832714 144.77435120963642,334.0026884056068 139.90495365205803,340.1087198111218 132.09504634794197,340.1087198111218 127.22564879036358,334.0026884056068 128.96351665778772,326.3885917832714" fill="#111827" stroke="#111827" stroke-width="2" stroke-linejoin="round" /><polygon points="163.0,323.0 170.03648334221228,326.3885917832714 171.77435120963642,334.0026884056068 166.90495365205803,340.1087198111218 159.09504634794197,340.1087198111218 154.22564879036358,334.0026884056068 155.96351665778772,326.3885917832714" fill="#111827" stroke="#111827" stroke-width="2" stroke-linejoin="round" /><polygon points="190.0,323.0 197.03648334221228,326.3885917832714 198.77435120963642,334.0026884056068 193.90495365205803,340.1087198111218 186.09504634794197,340.1087198111218 181.22564879036358,334.0026884056068 182.96351665778772,326.3885917832714" fill="#111827" stroke="#111827" stroke-width="2" stroke-linejoin="round" /><polygon points="149.0,357.0 156.03648334221228,360.3885917832714 157.77435120963642,368.0026884056068 152.90495365205803,374.1087198111218 145.09504634794197,374.1087198111218 140.22564879036358,368.0026884056068 141.96351665778772,360.3885917832714" fill="white" stroke="#111827" stroke-width="2" stroke-linejoin="round" /><polygon points="177.0,357.0 184.03648334221228,360.3885917832714 185.77435120963642,368.0026884056068 180.90495365205803,374.1087198111218 173.09504634794197,374.1087198111218 168.22564879036358,368.0026884056068 169.96351665778772,360.3885917832714" fill="white" stroke="#111827" stroke-width="2" stroke-linejoin="round" /><polygon points="163.0,382.0 170.03648334221228,385.3885917832714 171.77435120963642,393.0026884056068 166.90495365205803,399.1087198111218 159.09504634794197,399.1087198111218 154.22564879036358,393.0026884056068 155.96351665778772,385.3885917832714" fill="white" stroke="#111827" stroke-width="2" stroke-linejoin="round" /><rect x="113" y="303" width="18" height="18" rx="0" fill="white" stroke="#111827" stroke-width="3" /><text x="162.5" y="435" text-anchor="middle" font-family="Arial, Helvetica, sans-serif" font-size="20" font-weight="800" fill="#111827">C</text><rect x="370" y="290" width="125" height="125" rx="0" fill="white" stroke="#374151" stroke-width="2" /><polygon points="406.0,323.0 413.79422863405995,327.5 413.79422863405995,336.5 406.0,341.0 398.20577136594005,336.5 398.20577136594005,327.5" fill="#111827" stroke="#111827" stroke-width="2" stroke-linejoin="round" /><polygon points="433.0,323.0 440.79422863405995,327.5 440.79422863405995,336.5 433.0,341.0 425.20577136594005,336.5 425.20577136594005,327.5" fill="#111827" stroke="#111827" stroke-width="2" stroke-linejoin="round" /><polygon points="460.0,323.0 467.79422863405995,327.5 467.79422863405995,336.5 460.0,341.0 452.20577136594005,336.5 452.20577136594005,327.5" fill="#111827" stroke="#111827" stroke-width="2" stroke-linejoin="round" /><polygon points="419.0,357.0 426.79422863405995,361.5 426.79422863405995,370.5 419.0,375.0 411.20577136594005,370.5 411.20577136594005,361.5" fill="white" stroke="#111827" stroke-width="2" stroke-linejoin="round" /><polygon points="447.0,357.0 454.79422863405995,361.5 454.79422863405995,370.5 447.0,375.0 439.20577136594005,370.5 439.20577136594005,361.5" fill="white" stroke="#111827" stroke-width="2" stroke-linejoin="round" /><polygon points="433.0,382.0 440.79422863405995,386.5 440.79422863405995,395.5 433.0,400.0 425.20577136594005,395.5 425.20577136594005,386.5" fill="white" stroke="#111827" stroke-width="2" stroke-linejoin="round" /><rect x="383" y="303" width="18" height="18" rx="0" fill="white" stroke="#111827" stroke-width="3" /><text x="432.5" y="435" text-anchor="middle" font-family="Arial, Helvetica, sans-serif" font-size="20" font-weight="800" fill="#111827">B</text><rect x="640" y="290" width="125" height="125" rx="0" fill="white" stroke="#374151" stroke-width="2" /><polygon points="676.0,323.0 683.0364833422123,326.3885917832714 684.7743512096364,334.0026884056068 679.904953652058,340.1087198111218 672.095046347942,340.1087198111218 667.2256487903636,334.0026884056068 668.9635166577877,326.3885917832714" fill="#111827" stroke="#111827" stroke-width="2" stroke-linejoin="round" /><polygon points="703.0,323.0 710.0364833422123,326.3885917832714 711.7743512096364,334.0026884056068 706.904953652058,340.1087198111218 699.095046347942,340.1087198111218 694.2256487903636,334.0026884056068 695.9635166577877,326.3885917832714" fill="#111827" stroke="#111827" stroke-width="2" stroke-linejoin="round" /><polygon points="730.0,323.0 737.0364833422123,326.3885917832714 738.7743512096364,334.0026884056068 733.904953652058,340.1087198111218 726.095046347942,340.1087198111218 721.2256487903636,334.0026884056068 722.9635166577877,326.3885917832714" fill="#111827" stroke="#111827" stroke-width="2" stroke-linejoin="round" /><polygon points="689.0,357.0 696.0364833422123,360.3885917832714 697.7743512096364,368.0026884056068 692.904953652058,374.1087198111218 685.095046347942,374.1087198111218 680.2256487903636,368.0026884056068 681.9635166577877,360.3885917832714" fill="#111827" stroke="#111827" stroke-width="2" stroke-linejoin="round" /><polygon points="717.0,357.0 724.0364833422123,360.3885917832714 725.7743512096364,368.0026884056068 720.904953652058,374.1087198111218 713.095046347942,374.1087198111218 708.2256487903636,368.0026884056068 709.9635166577877,360.3885917832714" fill="white" stroke="#111827" stroke-width="2" stroke-linejoin="round" /><polygon points="703.0,382.0 710.0364833422123,385.3885917832714 711.7743512096364,393.0026884056068 706.904953652058,399.1087198111218 699.095046347942,399.1087198111218 694.2256487903636,393.0026884056068 695.9635166577877,385.3885917832714" fill="white" stroke="#111827" stroke-width="2" stroke-linejoin="round" /><rect x="653" y="303" width="18" height="18" rx="0" fill="white" stroke="#111827" stroke-width="3" /><text x="702.5" y="435" text-anchor="middle" font-family="Arial, Helvetica, sans-serif" font-size="20" font-weight="800" fill="#111827">A</text><rect x="910" y="290" width="125" height="125" rx="0" fill="white" stroke="#374151" stroke-width="2" /><polygon points="946.0,323.0 953.0364833422123,326.3885917832714 954.7743512096364,334.0026884056068 949.904953652058,340.1087198111218 942.095046347942,340.1087198111218 937.2256487903636,334.0026884056068 938.9635166577877,326.3885917832714" fill="#111827" stroke="#111827" stroke-width="2" stroke-linejoin="round" /><polygon points="973.0,323.0 980.0364833422123,326.3885917832714 981.7743512096364,334.0026884056068 976.904953652058,340.1087198111218 969.095046347942,340.1087198111218 964.2256487903636,334.0026884056068 965.9635166577877,326.3885917832714" fill="#111827" stroke="#111827" stroke-width="2" stroke-linejoin="round" /><polygon points="1000.0,323.0 1007.0364833422123,326.3885917832714 1008.7743512096364,334.0026884056068 1003.904953652058,340.1087198111218 996.095046347942,340.1087198111218 991.2256487903636,334.0026884056068 992.9635166577877,326.3885917832714" fill="#111827" stroke="#111827" stroke-width="2" stroke-linejoin="round" /><polygon points="959.0,357.0 966.0364833422123,360.3885917832714 967.7743512096364,368.0026884056068 962.904953652058,374.1087198111218 955.095046347942,374.1087198111218 950.2256487903636,368.0026884056068 951.9635166577877,360.3885917832714" fill="white" stroke="#111827" stroke-width="2" stroke-linejoin="round" /><polygon points="987.0,357.0 994.0364833422123,360.3885917832714 995.7743512096364,368.0026884056068 990.904953652058,374.1087198111218 983.095046347942,374.1087198111218 978.2256487903636,368.0026884056068 979.9635166577877,360.3885917832714" fill="white" stroke="#111827" stroke-width="2" stroke-linejoin="round" /><polygon points="973.0,382.0 980.0364833422123,385.3885917832714 981.7743512096364,393.0026884056068 976.904953652058,399.1087198111218 969.095046347942,399.1087198111218 964.2256487903636,393.0026884056068 965.9635166577877,385.3885917832714" fill="white" stroke="#111827" stroke-width="2" stroke-linejoin="round" /><rect x="1004" y="303" width="18" height="18" rx="0" fill="white" stroke="#111827" stroke-width="3" /><text x="972.5" y="435" text-anchor="middle" font-family="Arial, Helvetica, sans-serif" font-size="20" font-weight="800" fill="#111827">D</text>
</svg>