<svg xmlns="http://www.w3.org/2000/svg" viewBox="0 0 1200 485">
<defs>
  <pattern id="hatch0" width="8" height="8" patternUnits="userSpaceOnUse">
    <line x1="0" y1="0" x2="8" y2="8" stroke="#111827" stroke-width="2"/>
  </pattern>
  <pattern id="hatch45" width="8" height="8" patternUnits="userSpaceOnUse" patternTransform="rotate(45)">
    <line x1="0" y1="0" x2="0" y2="8" stroke="#111827" stroke-width="2"/>
  </pattern>
  <pattern id="hatch90" width="8" height="8" patternUnits="userSpaceOnUse">
    <line x1="4" y1="0" x2="4" y2="8" stroke="#111827" stroke-width="2"/>
  </pattern>
</defs>
<rect width="1200" height="485" fill="white"/>
<text x="35" y="34" text-anchor="start" font-family="Arial,Helvetica,sans-serif" font-size="24" font-weight="850" fill="#1A237E">Q8 — Which option matches the target exactly after rotation?</text><rect x="55" y="78" width="145" height="145" rx="0" fill="white" stroke="#374151" stroke-width="2"/><polygon points="92.5,138.5 117.5,138.5 117.5,115.5 139.5,115.5 139.5,140.5 162.5,140.5 162.5,162.5 137.5,162.5 137.5,185.5 115.5,185.5 115.5,160.5 92.5,160.5" fill="white" stroke="#111827" stroke-width="3" stroke-linejoin="round"/><circle cx="150.5" cy="127.5" r="5" fill="#111827" stroke="#111827" stroke-width="1"/><rect x="108.55" y="161.45" width="8" height="8" rx="0" fill="white" stroke="#111827" stroke-width="1"/><text x="127" y="250" text-anchor="middle" font-family="Arial,Helvetica,sans-serif" font-size="18" font-weight="800" fill="#111827">Target</text><line x1="35" y1="285" x2="1165" y2="285" stroke="#CBD5E1" stroke-width="2" stroke-linecap="round"/><rect x="20" y="310" width="135" height="135" rx="0" fill="white" stroke="#374151" stroke-width="2"/><polygon points="99.5,412.5 99.5,387.5 122.5,387.5 122.5,365.5 97.5,365.5 97.5,342.5 75.5,342.5 75.5,367.5 52.5,367.5 52.5,389.5 77.5,389.5 77.5,412.5" fill="white" stroke="#111827" stroke-width="3" stroke-linejoin="round"/><circle cx="110.5" cy="354.5" r="5" fill="#111827" stroke="#111827" stroke-width="1"/><rect x="68.55" y="388.45" width="8" height="8" rx="0" fill="white" stroke="#111827" stroke-width="1"/><text x="87.5" y="470" text-anchor="middle" font-family="Arial,Helvetica,sans-serif" font-size="20" font-weight="850" fill="#111827">A</text><rect x="250" y="310" width="135" height="135" rx="0" fill="white" stroke="#374151" stroke-width="2"/><polygon points="329.5,342.5 329.5,367.5 352.5,367.5 352.5,389.5 327.5,389.5 327.5,412.5 305.5,412.5 305.5,387.5 282.5,387.5 282.5,365.5 307.5,365.5 307.5,342.5" fill="white" stroke="#111827" stroke-width="3" stroke-linejoin="round"/><circle cx="340.5" cy="400.5" r="5" fill="#111827" stroke="#111827" stroke-width="1"/><rect x="298.55" y="358.55" width="8" height="8" rx="0" fill="white" stroke="#111827" stroke-width="1"/><text x="317.5" y="470" text-anchor="middle" font-family="Arial,Helvetica,sans-serif" font-size="20" font-weight="850" fill="#111827">B</text><rect x="480" y="310" width="135" height="135" rx="0" fill="white" stroke="#374151" stroke-width="2"/><polygon points="559.5,342.5 559.5,367.5 582.5,367.5 582.5,389.5 557.5,389.5 557.5,412.5 535.5,412.5 535.5,387.5 512.5,387.5 512.5,365.5 537.5,365.5 537.5,342.5" fill="white" stroke="#111827" stroke-width="3" stroke-linejoin="round"/><circle cx="524.5" cy="354.5" r="5" fill="#111827" stroke="#111827" stroke-width="1"/><rect x="558.45" y="388.45" width="8" height="8" rx="0" fill="white" stroke="#111827" stroke-width="1"/><text x="547.5" y="470" text-anchor="middle" font-family="Arial,Helvetica,sans-serif" font-size="20" font-weight="850" fill="#111827">C</text><rect x="710" y="310" width="135" height="135" rx="0" fill="white" stroke="#374151" stroke-width="2"/><polygon points="765.5,412.5 765.5,387.5 742.5,387.5 742.5,365.5 767.5,365.5 767.5,342.5 789.5,342.5 789.5,367.5 812.5,367.5 812.5,389.5 787.5,389.5 787.5,412.5" fill="white" stroke="#111827" stroke-width="3" stroke-linejoin="round"/><circle cx="754.5" cy="354.5" r="5" fill="#111827" stroke="#111827" stroke-width="1"/><rect x="788.45" y="358.55" width="8" height="8" rx="0" fill="white" stroke="#111827" stroke-width="1"/><text x="777.5" y="470" text-anchor="middle" font-family="Arial,Helvetica,sans-serif" font-size="20" font-weight="850" fill="#111827">D</text><rect x="940" y="310" width="135" height="135" rx="0" fill="white" stroke="#374151" stroke-width="2"/><polygon points="1019.5,342.5 1019.5,367.5 1042.5,367.5 1042.5,389.5 1017.5,389.5 1017.5,412.5 995.5,412.5 995.5,387.5 972.5,387.5 972.5,365.5 997.5,365.5 997.5,342.5" fill="white" stroke="#111827" stroke-width="3" stroke-linejoin="round"/><circle cx="1030.5" cy="354.5" r="5" fill="#111827" stroke="#111827" stroke-width="1"/><rect x="988.55" y="358.55" width="8" height="8" rx="0" fill="white" stroke="#111827" stroke-width="1"/><text x="1007.5" y="470" text-anchor="middle" font-family="Arial,Helvetica,sans-serif" font-size="20" font-weight="850" fill="#111827">E</text>
</svg>